<?xml version="1.0" encoding="UTF-8" standalone="no"?>
<svg
   width="16"
   height="16"
   version="1.1"
   id="svg62"
   sodipodi:docname="button-minimize.svg"
   inkscape:version="1.3.2 (091e20ef0f, 2023-11-25)"
   xmlns:inkscape="http://www.inkscape.org/namespaces/inkscape"
   xmlns:sodipodi="http://sodipodi.sourceforge.net/DTD/sodipodi-0.dtd"
   xmlns="http://www.w3.org/2000/svg"
   xmlns:svg="http://www.w3.org/2000/svg">
  <defs
     id="defs66" />
  <sodipodi:namedview
     id="namedview64"
     pagecolor="#ffffff"
     bordercolor="#000000"
     borderopacity="0.25"
     inkscape:showpageshadow="2"
     inkscape:pageopacity="0.0"
     inkscape:pagecheckerboard="0"
     inkscape:deskcolor="#d1d1d1"
     showgrid="false"
     inkscape:zoom="31.853746"
     inkscape:cx="7.9582477"
     inkscape:cy="8.1466086"
     inkscape:window-width="1920"
     inkscape:window-height="948"
     inkscape:window-x="0"
     inkscape:window-y="0"
     inkscape:window-maximized="1"
     inkscape:current-layer="svg62" />
  <g
     transform="translate(-253,242.63782)"
     style="display:inline"
     id="titlebutton-minimize-alt"
     inkscape:label="#g1623">
    <rect
       style="opacity:0;fill:#000000;fill-opacity:1;stroke:none;stroke-width:0.474321;stroke-linejoin:miter;stroke-miterlimit:4;stroke-dasharray:none;stroke-opacity:1;paint-order:markers stroke fill"
       id="rect1565-1-17"
       width="16"
       height="16"
       x="253"
       y="-242.63782"
       ry="1.6930764e-05" />
    <g
       inkscape:label="#g941"
       transform="translate(254,-241.63782)"
       id="titlebutton-minimize-1-8-7"
       style="enable-background:new">
      <g
         transform="translate(-4.9999997,-1033.3622)"
         id="g6-2-7-1">
        <path
           style="fill:#caa124;fill-opacity:1;fill-rule:evenodd;stroke:none"
           d="m 12.000061,1047.3622 c 3.865929,0 6.999939,-3.134 6.999939,-7 0,-3.866 -3.13401,-7 -6.999939,-7 -3.8660427,0 -7.0000616,3.134 -7.0000616,7 0,3.866 3.1340189,7 7.0000616,7"
           id="path2-37-9-1"
           inkscape:connector-curvature="0" />
        <path
           style="opacity:1;fill:#fdc92d;fill-opacity:1;fill-rule:evenodd;stroke:none"
           d="m 12.000067,1046.8623 c 3.589781,0 6.499933,-2.9103 6.499933,-6.5001 0,-3.5899 -2.910152,-6.5 -6.499933,-6.5 -3.5899136,0 -6.5000676,2.9101 -6.5000676,6.5 0,3.5898 2.910154,6.5001 6.5000676,6.5001"
           id="path4-59-2-5"
           inkscape:connector-curvature="0" />
      </g>
    </g>
  </g>
</svg>
