<?xml version="1.0" encoding="UTF-8" standalone="no"?>
<svg
   width="16"
   height="16"
   version="1.1"
   id="svg33"
   sodipodi:docname="button-close-backdrop-active.svg"
   inkscape:version="1.3.2 (091e20ef0f, 2023-11-25)"
   xmlns:inkscape="http://www.inkscape.org/namespaces/inkscape"
   xmlns:sodipodi="http://sodipodi.sourceforge.net/DTD/sodipodi-0.dtd"
   xmlns="http://www.w3.org/2000/svg"
   xmlns:svg="http://www.w3.org/2000/svg">
  <defs
     id="defs37" />
  <sodipodi:namedview
     id="namedview35"
     pagecolor="#ffffff"
     bordercolor="#000000"
     borderopacity="0.25"
     inkscape:showpageshadow="2"
     inkscape:pageopacity="0.0"
     inkscape:pagecheckerboard="0"
     inkscape:deskcolor="#d1d1d1"
     showgrid="false"
     inkscape:zoom="27.729741"
     inkscape:cx="8.0238759"
     inkscape:cy="8.2402501"
     inkscape:window-width="1920"
     inkscape:window-height="948"
     inkscape:window-x="0"
     inkscape:window-y="0"
     inkscape:window-maximized="1"
     inkscape:current-layer="svg33" />
  <g
     transform="translate(-293,216.63782)"
     style="display:inline"
     id="titlebutton-close-backdrop-hover-alt"
     inkscape:label="#g1669">
    <rect
       ry="1.6930764e-05"
       y="-216.63782"
       x="293"
       height="16"
       width="16"
       id="rect2035"
       style="opacity:0;fill:#000000;fill-opacity:1;stroke:none;stroke-width:0.474321;stroke-linejoin:miter;stroke-miterlimit:4;stroke-dasharray:none;stroke-opacity:1;paint-order:markers stroke fill" />
    <g
       inkscape:label="#g879"
       transform="translate(294,-215.63782)"
       id="g2045"
       style="enable-background:new">
      <g
         transform="translate(-4.9999997,-1033.3622)"
         id="g2043">
        <path
           style="fill:#bababa;fill-opacity:1;fill-rule:evenodd;stroke:none"
           d="m 12.000061,1047.3622 c 3.865929,0 6.999939,-3.134 6.999939,-7 0,-3.866 -3.13401,-7 -6.999939,-7 -3.8660427,0 -7.0000616,3.134 -7.0000616,7 0,3.866 3.1340189,7 7.0000616,7"
           id="path2037"
           inkscape:connector-curvature="0" />
        <path
           style="fill:#cecece;fill-opacity:1;fill-rule:evenodd;stroke:none"
           d="m 12.000067,1046.8623 c 3.589781,0 6.499933,-2.9103 6.499933,-6.5001 0,-3.5899 -2.910152,-6.5 -6.499933,-6.5 -3.5899136,0 -6.5000676,2.9101 -6.5000676,6.5 0,3.5898 2.910154,6.5001 6.5000676,6.5001"
           id="path2039"
           inkscape:connector-curvature="0" />
        <path
           inkscape:connector-curvature="0"
           id="path2041"
           d="m 12.000031,1043.3623 c 1.656822,0 2.999969,-1.3432 2.999969,-3.0001 0,-1.6568 -1.343147,-3 -2.999969,-3 -1.656883,0 -3.0000313,1.3432 -3.0000313,3 0,1.6569 1.3431483,3.0001 3.0000313,3.0001"
           style="opacity:0.5;fill:#000000;fill-opacity:1;fill-rule:evenodd;stroke:none;stroke-width:0.461538" />
      </g>
    </g>
  </g>
</svg>
