<?xml version="1.0" encoding="UTF-8" standalone="no"?>
<svg
   width="16"
   height="16"
   version="1.1"
   id="svg41"
   sodipodi:docname="button-restore.svg"
   inkscape:version="1.3.2 (091e20ef0f, 2023-11-25)"
   xmlns:inkscape="http://www.inkscape.org/namespaces/inkscape"
   xmlns:sodipodi="http://sodipodi.sourceforge.net/DTD/sodipodi-0.dtd"
   xmlns="http://www.w3.org/2000/svg"
   xmlns:svg="http://www.w3.org/2000/svg">
  <defs
     id="defs45" />
  <sodipodi:namedview
     id="namedview43"
     pagecolor="#ffffff"
     bordercolor="#000000"
     borderopacity="0.25"
     inkscape:showpageshadow="2"
     inkscape:pageopacity="0.0"
     inkscape:pagecheckerboard="0"
     inkscape:deskcolor="#d1d1d1"
     showgrid="false"
     inkscape:zoom="29.717101"
     inkscape:cx="7.9920313"
     inkscape:cy="8.1602845"
     inkscape:window-width="1920"
     inkscape:window-height="948"
     inkscape:window-x="0"
     inkscape:window-y="0"
     inkscape:window-maximized="1"
     inkscape:current-layer="svg41" />
  <g
     transform="translate(-313,242.63782)"
     style="display:inline"
     id="titlebutton-restore-alt"
     inkscape:label="#g1645">
    <rect
       ry="1.6930764e-05"
       y="-242.63782"
       x="313"
       height="16"
       width="16"
       id="rect1571-7-9"
       style="opacity:0;fill:#000000;fill-opacity:1;stroke:none;stroke-width:0.474321;stroke-linejoin:miter;stroke-miterlimit:4;stroke-dasharray:none;stroke-opacity:1;paint-order:markers stroke fill" />
    <g
       style="enable-background:new"
       id="titlebutton-restore-1-3-4"
       transform="translate(314,-241.63782)"
       inkscape:label="#g891">
      <g
         id="g993-6-8"
         transform="translate(-4.9999997,-1033.3622)">
        <path
           inkscape:connector-curvature="0"
           id="path989-1-12"
           d="m 12.000061,1047.3622 c 3.865929,0 6.999939,-3.134 6.999939,-7 0,-3.866 -3.13401,-7 -6.999939,-7 -3.8660427,0 -7.0000616,3.134 -7.0000616,7 0,3.866 3.1340189,7 7.0000616,7"
           style="fill:#20a932;fill-opacity:1;fill-rule:evenodd;stroke:none" />
        <path
           inkscape:connector-curvature="0"
           id="path991-2-9"
           d="m 12.000067,1046.8623 c 3.589781,0 6.499933,-2.9103 6.499933,-6.5001 0,-3.5899 -2.910152,-6.5 -6.499933,-6.5 -3.5899136,0 -6.5000676,2.9101 -6.5000676,6.5 0,3.5898 2.910154,6.5001 6.5000676,6.5001"
           style="opacity:1;fill:#28d33f;fill-opacity:1;fill-rule:evenodd;stroke:none" />
      </g>
    </g>
  </g>
</svg>
