<?xml version="1.0" encoding="UTF-8" standalone="no"?>
<svg
   width="20"
   height="20"
   version="1.1"
   id="svg86"
   sodipodi:docname="button-menu-active.svg"
   inkscape:version="1.2.2 (b0a8486541, 2022-12-01)"
   xmlns:inkscape="http://www.inkscape.org/namespaces/inkscape"
   xmlns:sodipodi="http://sodipodi.sourceforge.net/DTD/sodipodi-0.dtd"
   xmlns="http://www.w3.org/2000/svg"
   xmlns:svg="http://www.w3.org/2000/svg">
  <defs
     id="defs90" />
  <sodipodi:namedview
     id="namedview88"
     pagecolor="#ffffff"
     bordercolor="#000000"
     borderopacity="0.25"
     inkscape:showpageshadow="2"
     inkscape:pageopacity="0.0"
     inkscape:pagecheckerboard="0"
     inkscape:deskcolor="#d1d1d1"
     showgrid="false"
     inkscape:zoom="31.853746"
     inkscape:cx="7.9739443"
     inkscape:cy="8.1466085"
     inkscape:window-width="1920"
     inkscape:window-height="1053"
     inkscape:window-x="0"
     inkscape:window-y="0"
     inkscape:window-maximized="1"
     inkscape:current-layer="titlebutton-minimize-backdrop" />
  <g
     id="titlebutton-minimize-backdrop"
     transform="translate(-253,268.64)">
    <rect
       x="253"
       y="-268.64001"
       width="16"
       height="16"
       ry="1.6931001e-05"
       opacity="0"
       stroke-width="0.47432"
       style="paint-order:markers stroke fill"
       id="rect70" />
    <g
       transform="matrix(1.2857143,0,0,1.2857143,254.00003,-267.64)"
       enable-background="new"
       id="g78"
       sodipodi:insensitive="true">
      <g
         transform="translate(-5,-1033.4)"
         fill="#bababa"
         fill-rule="evenodd"
         id="g76">
        <path
           d="m 12,1047.4 c 3.8659,0 6.9999,-3.134 6.9999,-7 0,-3.866 -3.134,-7 -6.9999,-7 -3.866,0 -7.0001,3.134 -7.0001,7 0,3.866 3.134,7 7.0001,7"
           id="path72" />
        <path
           d="m 12,1046.9 c 3.5898,0 6.4999,-2.9103 6.4999,-6.5001 0,-3.5899 -2.9102,-6.5 -6.4999,-6.5 -3.5899,0 -6.5001,2.9101 -6.5001,6.5 0,3.5898 2.9102,6.5001 6.5001,6.5001"
           id="path74" />
      </g>
      <circle
         transform="matrix(3.7795,0,0,-3.7795,-385,-279.52)"
         cx="103.72"
         cy="-75.807999"
         r="0.66145998"
         fill="#000000"
         fill-opacity="0.96838"
         opacity="0.5"
         id="circle83" />
    </g>
  </g>
  <g
     id="menu_focused_prelight"
     transform="matrix(3.7795,0,0,3.7795,-384,-278.52)">
    <rect
       x="101.6"
       y="73.692001"
       width="4.2333002"
       height="4.2333002"
       ry="4.4796002e-06"
       opacity="0"
       stroke-width="0.1255"
       style="paint-order:markers stroke fill"
       id="rect81" />
  </g>
</svg>
